<?xml version="1.0" standalone="no"?><!DOCTYPE svg PUBLIC "-//W3C//DTD SVG 1.1//EN" "http://www.w3.org/Graphics/SVG/1.1/DTD/svg11.dtd"><svg t="1721122575387" class="icon" viewBox="0 0 1024 1024" version="1.1" xmlns="http://www.w3.org/2000/svg" p-id="4224" xmlns:xlink="http://www.w3.org/1999/xlink" width="200" height="200"><path d="M512 0a512 512 0 1 0 0 1024A512 512 0 0 0 512 0z m0 930.889143A419.401143 419.401143 0 0 1 93.110857 512 419.401143 419.401143 0 0 1 512 93.110857 419.401143 419.401143 0 0 1 930.889143 512 419.401143 419.401143 0 0 1 512 930.889143zM703.853714 319.634286l-0.585143-0.658286a42.861714 42.861714 0 0 0-60.635428 0L511.414857 450.194286 380.123429 318.902857a42.861714 42.861714 0 0 0-60.562286 0l-0.658286 0.658286a42.861714 42.861714 0 0 0 0 60.562286l131.291429 131.291428L318.902857 642.633143a42.861714 42.861714 0 0 0 0 60.708571l0.658286 0.512c16.676571 16.822857 43.885714 16.822857 60.562286 0L511.414857 572.708571l131.218286 131.218286c16.822857 16.822857 43.885714 16.822857 60.708571 0l0.512-0.585143a42.861714 42.861714 0 0 0 0-60.635428L572.708571 511.414857l131.218286-131.291428a42.861714 42.861714 0 0 0 0-60.562286zM561.517714 512l13.750857-13.750857L704.950857 368.64c16.530286-16.603429 13.897143-35.913143 0.438857-49.444571l-0.512-0.512c-13.531429-13.604571-32.914286-16.091429-49.444571 0.438857L525.750857 448.731429 512 462.482286l-13.750857-13.750857L368.64 319.122286c-16.530286-16.603429-35.913143-14.043429-49.444571-0.438857l-0.512 0.512c-13.531429 13.531429-16.091429 32.914286 0.438857 49.444571l129.609143 129.609143 13.750857 13.750857-143.36 143.36c-16.603429 16.603429-15.067429 37.083429-1.536 50.614857l0.438857 0.512c13.604571 13.458286 34.084571 14.994286 50.614857-1.609143L512 561.517714l143.36 143.36c16.603429 16.603429 37.083429 15.067429 50.614857 1.609143l0.512-0.512c13.531429-13.531429 14.994286-34.011429-1.536-50.614857L561.590857 512zM512 0a512 512 0 1 0 0 1024A512 512 0 0 0 512 0z m0 954.148571A442.733714 442.733714 0 0 1 69.778286 512 442.733714 442.733714 0 0 1 512 69.851429 442.660571 442.660571 0 0 1 954.221714 512 442.660571 442.660571 0 0 1 512 954.148571z" fill="#F85948" p-id="4225"></path></svg>